<svg xmlns="http://www.w3.org/2000/svg" width="396" height="414" viewBox="0 0 396 414" fill="none">
  <path d="M67.315 3.993C36.629 8.564 13.615 30.276 6.359 61.5C4.596 69.086 4.5 76.409 4.5 203C4.5 354.148 3.903 342.699 12.738 360.851C20.774 377.362 35.457 389.938 54.601 396.707L62.5 399.5H335.5L343.5 396.692C368.934 387.766 387.093 367.113 391.588 342C392.666 335.977 392.933 308.506 392.945 202.5C392.954 122.907 392.577 67.852 391.996 63.831C387.903 35.538 368.828 13.983 340.5 5.64C333.602 3.608 331.599 3.576 203 3.4C131.225 3.301 70.167 3.569 67.315 3.993Z" fill="#111827"/>
  <path d="M128.683 139.65C127.837 140.496 127.782 148.268 128.607 150.418C129.018 151.49 130.484 152 133.152 152C136.001 152 137.77 152.679 139.545 154.455L142 156.909V200.407C142 246.96 141.84 248.557 137.079 249.628C127.797 251.715 128.5 251.106 128.5 257.064V262.5L172.679 262.76C214.125 263.005 216.89 262.912 217.36 261.26C218.265 258.088 222.932 232.753 222.982 230.75C222.992 230.338 220.625 230 217.723 230H212.445L209.675 236.358C208.152 239.856 205.548 244.018 203.889 245.608L200.873 248.5H165.5L165.162 205.434C164.933 176.349 165.179 161.049 165.918 158.303C167.108 153.887 169.541 152.314 176 151.786L179.5 151.5V139.5L154.433 139.233C140.647 139.086 129.059 139.274 128.683 139.65Z" fill="#F8FAFC"/>
  <path d="M268.02 142C267.589 142.825 266.931 145.075 266.557 147C266.183 148.925 265.221 152.75 264.42 155.5C261.663 164.965 252.338 197.317 249 209C243.727 227.454 242.735 231.016 240.922 238C239.851 242.125 238.6 246.175 238.142 247C237.684 247.825 236.754 250.975 236.075 254C235.396 257.025 234.262 261.075 233.555 263C232.848 264.925 231.983 268.075 231.634 270L230.999 273.5L236.857 273.168C242.622 272.842 242.733 272.779 243.902 269.168C245.848 263.153 250.053 248.957 251.948 242C252.922 238.425 255.847 228.3 258.447 219.5C263.177 203.489 264.215 199.884 268.659 184C269.967 179.325 271.941 172.35 273.045 168.5C275.361 160.425 278.932 146.651 279.657 143C280.14 140.569 279.998 140.5 274.478 140.5C270.448 140.5 268.576 140.935 268.02 142Z" fill="#60A5FA"/>
  <path d="M98.788 159.786C96.196 161.829 88.996 167.216 82.788 171.758C76.58 176.3 66.448 183.725 60.273 188.258L49.047 196.5L49.023 202.75C49.011 206.188 49.381 209 49.847 209C50.313 209 51.663 209.787 52.847 210.75C54.032 211.713 58.938 215.317 63.75 218.761C68.563 222.205 76.1 227.626 80.5 230.809C84.9 233.991 92.213 239.178 96.75 242.334L105 248.074V232.307L97.952 227.404C94.076 224.707 90.038 221.825 88.978 221C87.918 220.175 85.577 218.469 83.776 217.209C71.916 208.913 64 202.905 64 202.198C64 201.305 67.904 198.215 74.991 193.499C77.471 191.848 84 187.123 89.499 182.999C94.999 178.875 100.736 174.719 102.249 173.765C104.877 172.107 105 171.671 105 164.015C105 159.607 104.662 156.016 104.25 156.036C103.838 156.055 101.38 157.743 98.788 159.786Z" fill="#60A5FA"/>
  <path d="M295.026 164.243L295.052 172.5L300.276 175.989C303.149 177.908 308.772 181.958 312.771 184.989C316.77 188.02 323.408 192.934 327.521 195.909C331.634 198.884 335 201.846 335 202.491C335 203.136 332.827 205.071 330.171 206.792C327.515 208.513 322.801 211.852 319.695 214.211C316.589 216.57 312.575 219.533 310.774 220.795C308.973 222.058 304.688 225.139 301.25 227.644L295 232.196V248.17L299.75 244.721C302.363 242.824 308.325 238.509 313 235.133C317.675 231.757 322.576 228.209 323.892 227.248C325.207 226.286 331.714 221.562 338.351 216.749L350.418 207.999L350.781 202.629C351.176 196.789 351.569 197.343 342.52 191C340.558 189.625 337.903 187.6 336.619 186.5C335.336 185.4 333.27 183.825 332.03 183C330.789 182.175 328.188 180.262 326.249 178.75C324.311 177.238 322.406 176 322.016 176C321.625 176 320.375 175.213 319.237 174.25C313.094 169.054 306.719 164.149 300.25 159.643L295 155.986L295.026 164.243Z" fill="#60A5FA"/>
</svg>
